<svg width="70" height="70" viewBox="0 0 70 70" fill="none" xmlns="http://www.w3.org/2000/svg">
<path d="M26.4583 25.8605V44.1396C26.4583 45.5063 27.0562 46.5028 28.2521 47.1292C29.4479 47.7556 30.6153 47.6987 31.7541 46.9584L45.9333 37.9042C47.0153 37.2778 47.5562 36.3098 47.5562 35C47.5562 33.6903 47.0153 32.7223 45.9333 32.0959L31.7541 23.0417C30.6153 22.3014 29.4479 22.2445 28.2521 22.8709C27.0562 23.4973 26.4583 24.4938 26.4583 25.8605ZM35 69.1667C30.2736 69.1667 25.8319 68.2693 21.675 66.4744C17.518 64.6818 13.9021 62.248 10.8271 59.173C7.75206 56.098 5.31826 52.482 3.52565 48.325C1.73076 44.1681 0.833313 39.7264 0.833313 35C0.833313 30.2737 1.73076 25.832 3.52565 21.675C5.31826 17.5181 7.75206 13.9021 10.8271 10.8271C13.9021 7.75212 17.518 5.31718 21.675 3.52229C25.8319 1.72968 30.2736 0.833374 35 0.833374C39.7264 0.833374 44.168 1.72968 48.325 3.52229C52.4819 5.31718 56.0979 7.75212 59.1729 10.8271C62.2479 13.9021 64.6817 17.5181 66.4743 21.675C68.2692 25.832 69.1666 30.2737 69.1666 35C69.1666 39.7264 68.2692 44.1681 66.4743 48.325C64.6817 52.482 62.2479 56.098 59.1729 59.173C56.0979 62.248 52.4819 64.6818 48.325 66.4744C44.168 68.2693 39.7264 69.1667 35 69.1667ZM35 62.3334C42.5736 62.3334 49.0231 59.6718 54.3486 54.3486C59.6717 49.0232 62.3333 42.5737 62.3333 35C62.3333 27.4264 59.6717 20.9769 54.3486 15.6515C49.0231 10.3283 42.5736 7.66671 35 7.66671C27.4264 7.66671 20.978 10.3283 15.6548 15.6515C10.3294 20.9769 7.66665 27.4264 7.66665 35C7.66665 42.5737 10.3294 49.0232 15.6548 54.3486C20.978 59.6718 27.4264 62.3334 35 62.3334Z" fill="#D9D9D9"/>
</svg>
