<svg width="65" height="93" viewBox="0 0 65 93" fill="none" xmlns="http://www.w3.org/2000/svg">
<path d="M64.2373 93H0.570312C0.570312 86.3138 1.64941 80.2624 3.80762 74.8457C5.96582 69.429 8.65299 65.1549 11.8691 62.0234C15.0853 58.8496 18.5765 55.8451 22.3428 53.0098C26.109 50.1322 29.5791 47.6989 32.7529 45.71C35.9691 43.6787 38.6562 41.3301 40.8145 38.6641C43.015 35.9557 44.1152 33.057 44.1152 29.9678C44.1152 26.3285 42.9727 23.472 40.6875 21.3984C38.4447 19.2826 35.2497 18.2246 31.1025 18.2246C27.8018 18.2246 24.9453 19.1556 22.5332 21.0176C20.1634 22.8796 18.5977 24.7204 17.8359 26.54L16.8203 29.2695L0.570312 21.5254C0.739583 20.9329 1.01465 20.1501 1.39551 19.1768C1.77637 18.2035 2.79199 16.4896 4.44238 14.0352C6.09277 11.5384 7.99707 9.35905 10.1553 7.49707C12.3135 5.63509 15.3604 3.94238 19.2959 2.41895C23.2738 0.85319 27.6325 0.0703125 32.3721 0.0703125C41.6396 0.0703125 49.2568 2.88444 55.2236 8.5127C61.2327 14.141 64.2373 21.0599 64.2373 29.2695C64.2373 33.8822 63.2428 38.0716 61.2539 41.8379C59.265 45.6042 56.6624 48.8203 53.4463 51.4863C50.2301 54.11 46.9294 56.5433 43.5439 58.7861C40.2008 60.9867 36.7731 63.5046 33.2607 66.3398C29.7484 69.1328 27.0824 71.9469 25.2627 74.7822H64.2373V93Z" fill="#ECECEC"/>
</svg>
