<svg width="69" height="95" viewBox="0 0 69 95" fill="none" xmlns="http://www.w3.org/2000/svg">
<path d="M52.3203 44.8848C52.7435 45.054 53.3148 45.3079 54.0342 45.6465C54.7959 45.9427 56.1077 46.7044 57.9697 47.9316C59.8317 49.1165 61.4609 50.4919 62.8574 52.0576C64.2962 53.6234 65.6081 55.8027 66.793 58.5957C67.9779 61.3464 68.5703 64.3721 68.5703 67.6729C68.5703 75.1208 65.46 81.5319 59.2393 86.9062C53.0609 92.2806 44.8936 94.9678 34.7373 94.9678C30.4209 94.9678 26.2526 94.46 22.2324 93.4443C18.2546 92.471 14.9961 91.2861 12.457 89.8896C9.91797 88.4932 7.67513 87.1178 5.72852 85.7637C3.82422 84.3672 2.44889 83.14 1.60254 82.082L0.269531 80.6221L12.0127 68.3076C12.182 68.5615 12.457 68.9212 12.8379 69.3867C13.2188 69.8099 14.0863 70.5928 15.4404 71.7354C16.7946 72.8356 18.2122 73.8301 19.6934 74.7188C21.2168 75.5651 23.1423 76.3268 25.4697 77.0039C27.8395 77.681 30.2728 78.0195 32.7695 78.0195C37.8053 78.0195 41.6562 76.9193 44.3223 74.7188C47.0306 72.5182 48.3848 69.7253 48.3848 66.3398C48.3848 62.9544 47.0518 60.1615 44.3857 57.9609C41.762 55.7604 38.1227 54.6602 33.4678 54.6602H23.6924V38.4102H32.7695C36.5781 38.4102 39.5827 37.3945 41.7832 35.3633C44.026 33.332 45.1475 30.666 45.1475 27.3652C45.1475 24.3184 44.0472 21.8216 41.8467 19.875C39.6462 17.9284 36.6204 16.9551 32.7695 16.9551C29.4688 16.9551 26.3584 17.6745 23.4385 19.1133C20.5609 20.5521 18.4873 21.9486 17.2178 23.3027L15.25 25.3975L3.57031 13.7178C3.82422 13.3792 4.20508 12.9137 4.71289 12.3213C5.2207 11.6865 6.42676 10.5651 8.33105 8.95703C10.2777 7.34896 12.3512 5.97363 14.5518 4.83105C16.7523 3.64616 19.6722 2.56706 23.3115 1.59375C26.9508 0.578125 30.7594 0.0703125 34.7373 0.0703125C43.9202 0.0703125 51.3047 2.50358 56.8906 7.37012C62.4766 12.1943 65.2695 18.2035 65.2695 25.3975C65.2695 28.0635 64.804 30.5602 63.873 32.8877C62.9844 35.1729 61.9053 37.0348 60.6357 38.4736C59.4085 39.9124 58.1602 41.1396 56.8906 42.1553C55.6634 43.1286 54.5632 43.8268 53.5898 44.25L52.3203 44.8848Z" fill="#ECECEC"/>
</svg>
