<svg width="28" height="28" viewBox="0 0 28 28" fill="none" xmlns="http://www.w3.org/2000/svg">
<path d="M14 0C11.2311 0 8.52431 0.821086 6.22202 2.35942C3.91973 3.89776 2.12532 6.08426 1.06569 8.64243C0.00606598 11.2006 -0.271181 14.0155 0.269012 16.7313C0.809205 19.447 2.14258 21.9416 4.10051 23.8995C6.05845 25.8574 8.55301 27.1908 11.2687 27.731C13.9845 28.2712 16.7994 27.9939 19.3576 26.9343C21.9157 25.8747 24.1022 24.0803 25.6406 21.778C27.1789 19.4757 28 16.7689 28 14C28 12.1615 27.6379 10.341 26.9343 8.64243C26.2307 6.94387 25.1995 5.40052 23.8995 4.1005C22.5995 2.80048 21.0561 1.76925 19.3576 1.06569C17.659 0.362121 15.8385 0 14 0ZM18.452 21.2128C18.3998 21.3436 18.3201 21.4617 18.2185 21.5592C18.1168 21.6566 17.9954 21.7312 17.8626 21.7779C17.7297 21.8246 17.5883 21.8423 17.4481 21.8298C17.3078 21.8173 17.1718 21.775 17.0492 21.7056L13.2482 18.7516L10.8094 21.0028C10.7528 21.0446 10.6866 21.0715 10.6169 21.081C10.5472 21.0906 10.4762 21.0824 10.4104 21.0574L10.878 16.8728L10.892 16.8854L10.9018 16.8028C10.9018 16.8028 17.7408 10.5756 18.0194 10.311C18.3022 10.0464 18.2084 9.989 18.2084 9.989C18.2252 9.667 17.703 9.989 17.703 9.989L8.64081 15.8186L4.86781 14.5334C4.86781 14.5334 4.28821 14.3262 4.23361 13.8684C4.17621 13.4148 4.88601 13.1684 4.88601 13.1684L19.8898 7.2072C19.8898 7.2072 21.1232 6.6584 21.1232 7.5684L18.452 21.2128Z" fill="#0D74AE"/>
</svg>
