<svg width="29" height="28" viewBox="0 0 29 28" fill="none" xmlns="http://www.w3.org/2000/svg">
<g clip-path="url(#clip0_128_33)">
<path d="M14.6533 0C11.9213 0 9.25065 0.821086 6.97906 2.35942C4.70747 3.89776 2.93698 6.08426 1.89148 8.64243C0.845981 11.2006 0.572431 14.0155 1.10542 16.7313C1.63841 19.447 2.95401 21.9416 4.88584 23.8995C6.81767 25.8574 9.27897 27.1908 11.9585 27.731C14.638 28.2712 17.4154 27.9939 19.9395 26.9343C22.4635 25.8747 24.6209 24.0803 26.1387 21.778C27.6565 19.4757 28.4667 16.7689 28.4667 14C28.4667 12.1615 28.1094 10.341 27.4152 8.64243C26.721 6.94387 25.7035 5.40052 24.4208 4.1005C23.1382 2.80048 21.6154 1.76925 19.9395 1.06569C18.2636 0.362121 16.4673 0 14.6533 0ZM19.046 21.2128C18.9944 21.3436 18.9159 21.4617 18.8155 21.5592C18.7152 21.6566 18.5955 21.7312 18.4644 21.7779C18.3333 21.8246 18.1938 21.8423 18.0554 21.8298C17.917 21.8173 17.7828 21.775 17.6619 21.7056L13.9116 18.7516L11.5053 21.0028C11.4494 21.0446 11.3841 21.0715 11.3153 21.081C11.2465 21.0906 11.1765 21.0824 11.1116 21.0574L11.573 16.8728L11.5868 16.8854L11.5964 16.8028C11.5964 16.8028 18.3443 10.5756 18.6191 10.311C18.8982 10.0464 18.8056 9.989 18.8056 9.989C18.8222 9.667 18.307 9.989 18.307 9.989L9.36559 15.8186L5.6429 14.5334C5.6429 14.5334 5.07103 14.3262 5.01716 13.8684C4.96052 13.4148 5.66086 13.1684 5.66086 13.1684L20.4646 7.2072C20.4646 7.2072 21.6816 6.6584 21.6816 7.5684L19.046 21.2128Z" fill="white"/>
</g>
<defs>
<clipPath id="clip0_128_33">
<rect width="27.6267" height="28" fill="white" transform="translate(0.839996)"/>
</clipPath>
</defs>
</svg>
