<svg width="28" height="28" viewBox="0 0 28 28" fill="none" xmlns="http://www.w3.org/2000/svg">
<path d="M14 0C6.27109 0 0 6.27109 0 14C0 17.0948 1.00175 19.9453 2.69575 22.2664L0.912158 27.5439L6.47469 25.8092C8.64921 27.1937 11.2309 28 14 28C21.7289 28 28 21.7289 28 14C28 6.27109 21.7289 0 14 0ZM20.4095 21.509C17.8685 22.5271 14.8389 21.5416 11.5241 19.025C8.20942 16.5084 6.02676 12.9657 5.88016 10.3351C5.73357 7.70448 7.87551 6.37696 9.04014 6.38511C10.2048 6.39325 11.4834 10.1152 11.4997 10.6853C11.516 11.2635 10.0745 12.2897 10.0175 12.7784C9.96044 13.267 11.9802 15.6777 12.8354 16.3293C13.6824 16.9727 15.4334 18.2106 16.3374 18.0966C17.2333 17.9744 17.8278 16.1745 18.3979 16.0605C18.968 15.9465 22.0791 17.4939 22.3886 17.893C22.6981 18.3002 22.6655 20.6131 20.4095 21.509Z" fill="white"/>
</svg>
