<svg width="22" height="16" viewBox="0 0 22 16" fill="none" xmlns="http://www.w3.org/2000/svg">
<path d="M21.6079 2.16213L19.6693 0.363722C19.4079 0.121241 19.0812 0 18.7109 0C18.3406 0 18.0139 0.121241 17.7525 0.363722L8.4297 9.01223L4.26931 5.13252C4.00792 4.89004 3.68119 4.7688 3.31089 4.7688C2.94059 4.7688 2.61386 4.89004 2.35248 5.13252L0.413861 6.93093C0.130693 7.17341 0 7.47651 0 7.82003C0 8.16354 0.130693 8.46664 0.392079 8.70912L5.53267 13.4779L7.47129 15.2763C7.73267 15.5188 8.05941 15.6401 8.4297 15.6401C8.8 15.6401 9.12673 15.5188 9.38812 15.2763L11.3267 13.4779L21.6079 3.94032C21.8693 3.69784 22 3.39474 22 3.05122C22 2.70771 21.8693 2.40461 21.6079 2.16213Z" fill="#12C868"/>
</svg>
