<svg width="29" height="28" viewBox="0 0 29 28" fill="none" xmlns="http://www.w3.org/2000/svg">
<path d="M5.83708 15.56C6.08738 15.56 6.32743 15.4504 6.50442 15.2554C6.68141 15.0604 6.78085 14.7958 6.78085 14.52V3.08002H17.1623V9.32001C17.1623 9.59584 17.2617 9.86036 17.4387 10.0554C17.6157 10.2504 17.8558 10.36 18.1061 10.36H23.7687V14.52C23.7687 14.7958 23.8681 15.0604 24.0451 15.2554C24.2221 15.4504 24.4621 15.56 24.7125 15.56C24.9628 15.56 25.2028 15.4504 25.3798 15.2554C25.5568 15.0604 25.6562 14.7958 25.6562 14.52V9.32001C25.6581 9.18164 25.6339 9.04435 25.5851 8.91681C25.5364 8.78927 25.4642 8.67425 25.3731 8.57901L18.7785 1.29902C18.5987 1.10587 18.3572 0.998457 18.1061 1.00002H6.78085C6.28024 1.00002 5.80014 1.21916 5.44616 1.60923C5.09218 1.99931 4.89331 2.52837 4.89331 3.08002V14.52C4.89331 14.7958 4.99274 15.0604 5.16973 15.2554C5.34673 15.4504 5.58678 15.56 5.83708 15.56ZM19.0498 4.54901L22.4356 8.28001H19.0498V4.54901ZM7.72462 18.68H5.83708C5.58678 18.68 5.34673 18.7896 5.16973 18.9846C4.99274 19.1797 4.89331 19.4442 4.89331 19.72V25.96C4.89331 26.2358 4.99274 26.5004 5.16973 26.6954C5.34673 26.8904 5.58678 27 5.83708 27C6.08738 27 6.32743 26.8904 6.50442 26.6954C6.68141 26.5004 6.78085 26.2358 6.78085 25.96V24.92H7.72462C8.47553 24.92 9.19568 24.5913 9.72665 24.0062C10.2576 23.4211 10.5559 22.6275 10.5559 21.8C10.5559 20.9725 10.2576 20.1789 9.72665 19.5938C9.19568 19.0087 8.47553 18.68 7.72462 18.68ZM7.72462 22.84H6.78085V20.76H7.72462C7.97492 20.76 8.21497 20.8696 8.39196 21.0646C8.56895 21.2596 8.66838 21.5242 8.66838 21.8C8.66838 22.0758 8.56895 22.3404 8.39196 22.5354C8.21497 22.7304 7.97492 22.84 7.72462 22.84ZM23.2968 20.76V22.32H25.1843C25.4346 22.32 25.6747 22.4296 25.8517 22.6246C26.0287 22.8196 26.1281 23.0842 26.1281 23.36C26.1281 23.6358 26.0287 23.9004 25.8517 24.0954C25.6747 24.2904 25.4346 24.4 25.1843 24.4H23.2968V25.96C23.2968 26.2358 23.1974 26.5004 23.0204 26.6954C22.8434 26.8904 22.6033 27 22.353 27C22.1027 27 21.8627 26.8904 21.6857 26.6954C21.5087 26.5004 21.4093 26.2358 21.4093 25.96V19.72C21.4093 19.4442 21.5087 19.1797 21.6857 18.9846C21.8627 18.7896 22.1027 18.68 22.353 18.68H25.6562C25.9065 18.68 26.1466 18.7896 26.3236 18.9846C26.5006 19.1797 26.6 19.4442 26.6 19.72C26.6 19.9958 26.5006 20.2604 26.3236 20.4554C26.1466 20.6504 25.9065 20.76 25.6562 20.76H23.2968ZM15.2748 18.68H13.6232C13.3729 18.68 13.1328 18.7896 12.9558 18.9846C12.7788 19.1797 12.6794 19.4442 12.6794 19.72V25.96C12.6794 26.2358 12.7788 26.5004 12.9558 26.6954C13.1328 26.8904 13.3729 27 13.6232 27H15.2748C16.276 27 17.2362 26.5617 17.9441 25.7816C18.6521 25.0014 19.0498 23.9433 19.0498 22.84C19.0498 21.7367 18.6521 20.6786 17.9441 19.8984C17.2362 19.1183 16.276 18.68 15.2748 18.68ZM15.2748 24.92H14.5669V20.76H15.2748C15.7754 20.76 16.2555 20.9791 16.6095 21.3692C16.9634 21.7593 17.1623 22.2884 17.1623 22.84C17.1623 23.3917 16.9634 23.9207 16.6095 24.3108C16.2555 24.7009 15.7754 24.92 15.2748 24.92Z" fill="white"/>
</svg>
